<svg width="211" height="91" viewBox="0 0 211 91" fill="none" xmlns="http://www.w3.org/2000/svg">
<path fill-rule="evenodd" clip-rule="evenodd" d="M127.797 10.488C125.656 12.3742 123.941 14.6325 122.748 17.134C121.555 19.6355 120.908 22.3313 120.845 25.0674C120.782 27.8034 121.303 30.5262 122.379 33.0802C123.455 35.6341 125.065 37.9693 127.116 39.9523C127.403 40.2398 127.557 40.6195 127.545 41.0095C127.532 41.3996 127.354 41.7689 127.048 42.0379C126.743 42.3069 126.335 42.4541 125.912 42.4477C125.49 42.4413 125.086 42.2819 124.788 42.0038C122.444 39.7375 120.604 37.0688 119.375 34.1501C118.145 31.2313 117.549 28.1197 117.622 24.9929C117.694 21.866 118.433 18.7853 119.796 15.9264C121.159 13.0676 123.12 10.4867 125.566 8.33116C125.877 8.06712 126.287 7.92654 126.71 7.9397C127.133 7.95286 127.533 8.11871 127.826 8.40153C128.118 8.68434 128.279 9.06149 128.274 9.45175C128.269 9.84201 128.097 10.2142 127.797 10.488ZM134.493 16.9617C132.024 19.1382 130.596 22.1343 130.523 25.2911C130.45 28.4478 131.738 31.5067 134.104 33.795C134.401 34.0814 134.562 34.4643 134.553 34.8595C134.544 35.2547 134.365 35.6297 134.056 35.9022C133.746 36.1746 133.332 36.3221 132.904 36.3122C132.476 36.3023 132.069 36.1358 131.773 35.8494C130.307 34.4329 129.157 32.7648 128.388 30.9404C127.62 29.1159 127.247 27.1709 127.293 25.2164C127.338 23.2619 127.8 21.3361 128.652 19.5492C129.504 17.7622 130.73 16.149 132.259 14.8017C132.568 14.5293 132.983 14.3818 133.411 14.3917C133.839 14.4016 134.246 14.5681 134.542 14.8545C134.838 15.1409 135 15.5238 134.99 15.919C134.981 16.3142 134.803 16.6892 134.493 16.9617ZM152.779 15.276C152.932 15.1409 153.112 15.0351 153.31 14.9646C153.507 14.8941 153.718 14.8603 153.93 14.8652C154.142 14.8701 154.352 14.9136 154.546 14.9932C154.74 15.0727 154.915 15.1868 155.062 15.3288C156.527 16.7453 157.677 18.4134 158.446 20.2378C159.215 22.0623 159.587 24.0073 159.542 25.9618C159.497 27.9163 159.035 29.8421 158.183 31.629C157.33 33.416 156.105 35.0292 154.575 36.3765C154.422 36.5113 154.242 36.617 154.044 36.6873C153.846 36.7577 153.636 36.7914 153.424 36.7865C153.212 36.7816 153.003 36.7382 152.809 36.6588C152.614 36.5794 152.439 36.4655 152.292 36.3237C152.146 36.1819 152.031 36.0149 151.954 35.8322C151.877 35.6496 151.839 35.4549 151.844 35.2592C151.848 35.0635 151.895 34.8707 151.98 34.6918C152.065 34.5129 152.188 34.3514 152.341 34.2165C154.811 32.04 156.239 29.0439 156.312 25.8871C156.385 22.7304 155.096 19.6715 152.73 17.3832C152.583 17.2415 152.468 17.0745 152.391 16.8918C152.314 16.7092 152.276 16.5144 152.281 16.3187C152.285 16.1229 152.332 15.9301 152.417 15.7512C152.503 15.5723 152.626 15.4108 152.779 15.276ZM159.767 9.12465C160.076 8.85266 160.489 8.70542 160.917 8.7153C161.344 8.72518 161.75 8.89138 162.046 9.17734C166.78 13.7542 169.357 19.8726 169.211 26.1868C169.065 32.501 166.208 38.4938 161.268 42.847C160.958 43.1111 160.547 43.2516 160.124 43.2385C159.702 43.2253 159.301 43.0595 159.009 42.7767C158.716 42.4939 158.555 42.1167 158.56 41.7264C158.566 41.3362 158.737 40.964 159.037 40.6902C161.178 38.804 162.894 36.5457 164.087 34.0442C165.279 31.5426 165.926 28.8469 165.989 26.1108C166.052 23.3748 165.531 20.652 164.455 18.098C163.379 15.5441 161.77 13.2089 159.718 11.2258C159.422 10.9398 159.261 10.5574 159.27 10.1628C159.28 9.76826 159.458 9.39375 159.767 9.12168L159.767 9.12465Z" fill="#66C5D6"/>
<path fill-rule="evenodd" clip-rule="evenodd" d="M143.45 27.7565C144.118 27.7719 144.753 28.0223 145.215 28.4527C145.678 28.8831 145.93 29.4581 145.916 30.0513L145.5 59.0115C145.486 59.6046 144.952 60.2838 144.47 60.6923C143.988 61.1009 143.342 61.3217 142.675 61.3063C142.007 61.2909 141.372 61.0404 140.91 60.6101C140.447 60.1797 140.195 59.6046 140.209 59.0114L140.545 44.4732L140.881 29.9349C140.895 29.3417 141.173 28.779 141.655 28.3704C142.137 27.9619 142.783 27.741 143.45 27.7565Z" fill="#66C5D6"/>
<path d="M150.035 26.2505C149.998 27.8292 149.284 29.3275 148.049 30.4158C146.814 31.5041 145.159 32.0934 143.449 32.0538C141.738 32.0143 140.113 31.3493 138.929 30.205C137.745 29.0608 137.101 27.5311 137.138 25.9524C137.174 24.3737 137.888 22.8754 139.124 21.7871C140.359 20.6987 142.014 20.1095 143.724 20.1491C145.434 20.1886 147.06 20.8536 148.243 21.9979C149.427 23.1421 150.071 24.6718 150.035 26.2505Z" fill="#256ED5"/>
<path d="M14.1281 90.2022C12.1698 90.2022 10.3365 89.8897 8.62813 89.2647C6.96146 88.6397 5.48229 87.7647 4.19063 86.6397C2.94063 85.5147 1.94062 84.1814 1.19062 82.6397C0.440625 81.1397 0.0447917 79.4939 0.003125 77.7022C-0.0385417 75.3689 0.336458 73.2856 1.12812 71.4522C1.87812 69.6189 2.87813 67.9939 4.12813 66.5772C5.41979 65.1606 6.87813 63.9731 8.50313 63.0147C10.1281 62.0147 11.7948 61.2022 13.5031 60.5772C12.5865 60.0772 11.7115 59.4731 10.8781 58.7647C10.0865 58.0564 9.37813 57.2647 8.75313 56.3897C8.12813 55.5147 7.62813 54.5981 7.25313 53.6397C6.87813 52.6814 6.69063 51.7231 6.69063 50.7647C6.60729 47.8481 7.19063 45.2022 8.44063 42.8272C9.73229 40.4522 11.3781 38.4314 13.3781 36.7647C15.3781 35.0564 17.6073 33.7439 20.0656 32.8272C22.5656 31.9106 25.0031 31.4522 27.3781 31.4522C28.9615 31.4522 30.3156 31.7231 31.4406 32.2647C32.5656 32.7647 33.4823 33.4106 34.1906 34.2022C34.899 34.9522 35.4198 35.7856 35.7531 36.7022C36.1281 37.5772 36.3365 38.3897 36.3781 39.1397C36.4198 40.5147 36.2323 41.9106 35.8156 43.3272C35.4406 44.7439 34.9406 46.0356 34.3156 47.2022C33.7323 48.3272 33.0656 49.2647 32.3156 50.0147C31.5656 50.7231 30.8365 51.0772 30.1281 51.0772C29.5865 51.0772 29.024 50.9939 28.4406 50.8272C27.9406 50.7022 27.3573 50.4939 26.6906 50.2022C26.024 49.9106 25.3573 49.4731 24.6906 48.8897C25.774 48.4731 26.7323 47.8897 27.5656 47.1397C28.399 46.3481 29.0865 45.4731 29.6281 44.5147C30.2115 43.5564 30.6281 42.5772 30.8781 41.5772C31.1698 40.5356 31.3156 39.5564 31.3156 38.6397C31.274 37.3064 30.9615 36.2856 30.3781 35.5772C29.7948 34.8272 28.8573 34.4522 27.5656 34.4522C25.8156 34.4522 24.0656 34.8897 22.3156 35.7647C20.5656 36.5981 19.0031 37.7856 17.6281 39.3272C16.2948 40.8272 15.2323 42.6397 14.4406 44.7647C13.6906 46.8481 13.4406 49.1189 13.6906 51.5772C13.899 53.4522 14.4615 55.0356 15.3781 56.3272C16.3365 57.6189 17.2323 58.6189 18.0656 59.3272C18.7323 59.2439 19.3573 59.1814 19.9406 59.1397C20.524 59.0564 21.0656 59.0147 21.5656 59.0147C22.274 59.0147 22.9823 59.1397 23.6906 59.3897C24.399 59.6397 24.7531 59.9939 24.7531 60.4522C24.7531 60.7856 24.6698 61.1606 24.5031 61.5772C24.3781 61.9939 24.149 62.3897 23.8156 62.7647C23.4823 63.1397 23.0865 63.4522 22.6281 63.7022C22.1698 63.9522 21.6281 64.0772 21.0031 64.0772C20.5031 64.0772 19.899 63.9522 19.1906 63.7022C18.4823 63.4522 17.774 63.1397 17.0656 62.7647C15.4823 63.0981 14.0448 63.7022 12.7531 64.5772C11.4615 65.4106 10.3573 66.4106 9.44063 67.5772C8.56563 68.7439 7.87813 70.0147 7.37813 71.3897C6.87813 72.7647 6.64896 74.0981 6.69063 75.3897C6.73229 76.5981 6.91979 77.8064 7.25313 79.0147C7.58646 80.2647 8.10729 81.3689 8.81563 82.3272C9.52396 83.2856 10.4406 84.0564 11.5656 84.6397C12.7323 85.2647 14.1281 85.5772 15.7531 85.5772C16.9615 85.5772 18.1073 85.3064 19.1906 84.7647C20.3156 84.2647 21.3573 83.6189 22.3156 82.8272C23.274 82.0356 24.149 81.1606 24.9406 80.2022C25.7323 79.2439 26.4198 78.3064 27.0031 77.3897C27.5865 76.4731 28.0656 75.6397 28.4406 74.8897C28.8573 74.1397 29.149 73.5981 29.3156 73.2647C29.4406 73.0147 29.6073 72.8272 29.8156 72.7022C30.0656 72.5772 30.2948 72.5564 30.5031 72.6397C30.7531 72.6814 30.9406 72.8272 31.0656 73.0772C31.1906 73.3272 31.1906 73.7022 31.0656 74.2022C30.7323 75.7022 30.1073 77.3689 29.1906 79.2022C28.274 81.0772 27.0865 82.8272 25.6281 84.4522C24.2115 86.0772 22.524 87.4314 20.5656 88.5147C18.649 89.6397 16.5031 90.2022 14.1281 90.2022Z" fill="#256ED5"/>
<path d="M43.1906 79.5772C41.6073 79.5772 40.3156 79.3272 39.3156 78.8272C38.3156 78.3272 37.524 77.7231 36.9406 77.0147C36.399 76.2647 36.0031 75.4731 35.7531 74.6397C35.5448 73.7647 35.4406 72.9731 35.4406 72.2647C35.4406 71.0147 35.5448 69.7022 35.7531 68.3272C35.9615 66.9106 36.2115 65.6189 36.5031 64.4522C36.7948 63.2439 37.0448 62.2231 37.2531 61.3897C37.5031 60.5564 37.6698 60.0356 37.7531 59.8272C38.1281 58.6189 38.6073 57.5772 39.1906 56.7022C39.8156 55.7856 40.6698 55.1606 41.7531 54.8272C42.1698 54.7439 42.6073 54.6606 43.0656 54.5772C43.4406 54.5356 43.8156 54.5147 44.1906 54.5147C44.6073 54.5147 44.9823 54.5772 45.3156 54.7022C44.1906 57.5772 43.2948 59.9731 42.6281 61.8897C42.0031 63.8064 41.524 65.3689 41.1906 66.5772C40.8156 67.9522 40.5865 69.0564 40.5031 69.8897C40.2948 71.7647 40.4615 73.1814 41.0031 74.1397C41.5448 75.0981 42.649 75.5772 44.3156 75.5772C45.399 75.5772 46.4406 75.1814 47.4406 74.3897C48.4406 73.5564 49.3573 72.4939 50.1906 71.2022C50.0656 70.5356 50.0031 69.8481 50.0031 69.1397C50.0031 67.8064 50.1073 66.5147 50.3156 65.2647C50.5656 63.9731 50.8365 62.7856 51.1281 61.7022C51.4615 60.5772 51.7948 59.5772 52.1281 58.7022C52.5031 57.8272 52.8156 57.1397 53.0656 56.6397C53.524 55.6397 53.9406 55.0356 54.3156 54.8272C54.6906 54.5772 55.2948 54.4314 56.1281 54.3897C56.4615 54.3481 56.7323 54.3481 56.9406 54.3897C57.1906 54.3897 57.399 54.4106 57.5656 54.4522C58.0656 54.5772 58.3156 54.8272 58.3156 55.2022C58.3156 55.8689 58.274 56.8689 58.1906 58.2022C58.1073 59.5356 57.8573 60.9106 57.4406 62.3272C57.149 63.4939 56.8573 64.4939 56.5656 65.3272C56.3156 66.1189 56.0656 66.8064 55.8156 67.3897C55.5656 67.9314 55.3156 68.3897 55.0656 68.7647C54.8156 69.0981 54.5865 69.4106 54.3781 69.7022C54.4615 70.9522 54.5656 71.9522 54.6906 72.7022C54.8156 73.4522 54.9615 74.0356 55.1281 74.4522C55.3365 74.8272 55.5656 75.0981 55.8156 75.2647C56.1073 75.3897 56.4198 75.4522 56.7531 75.4522C57.3365 75.4522 58.024 75.1814 58.8156 74.6397C59.6073 74.0564 60.4198 73.3481 61.2531 72.5147C62.1281 71.6397 62.9823 70.7022 63.8156 69.7022C64.6906 68.6606 65.4823 67.6814 66.1906 66.7647C66.899 65.8481 67.5031 65.0564 68.0031 64.3897C68.5031 63.6814 68.8156 63.2439 68.9406 63.0772C69.2323 62.7022 69.5031 62.4731 69.7531 62.3897C70.0448 62.3064 70.274 62.3481 70.4406 62.5147C70.6073 62.6397 70.6906 62.8689 70.6906 63.2022C70.7323 63.4939 70.649 63.8272 70.4406 64.2022C69.6073 65.7856 68.5656 67.4731 67.3156 69.2647C66.1073 71.0147 64.7948 72.6397 63.3781 74.1397C62.0031 75.6397 60.6073 76.8897 59.1906 77.8897C57.774 78.8897 56.4406 79.3897 55.1906 79.3897C54.0656 79.3897 53.1698 79.0147 52.5031 78.2647C51.8781 77.4731 51.3365 76.3481 50.8781 74.8897C49.9198 76.3897 48.7948 77.5564 47.5031 78.3897C46.2115 79.1814 44.774 79.5772 43.1906 79.5772Z" fill="#256ED5"/>
<path d="M70.5656 55.0772C70.774 54.8272 71.1698 54.6189 71.7531 54.4522C72.3365 54.2856 72.9406 54.1606 73.5656 54.0772C74.1906 53.9522 73.5031 54.0772 74.0031 54.0772C74.5448 54.0356 74.8573 54.0356 74.9406 54.0772C74.9823 54.1189 74.8781 54.5564 74.6281 55.3897C74.3781 56.2231 74.625 54.0147 75.5 54.9522C75.125 56.0772 74.1698 60.4314 73.7531 61.6397C73.3365 62.8064 73.024 63.7647 72.8156 64.5147C72.6073 65.2647 72.3573 66.1189 72.0656 67.0772C71.774 67.9939 71.5031 68.9106 71.2531 69.8272C71.0448 70.7022 70.899 71.5356 70.8156 72.3272C70.7323 73.1189 70.7948 73.7231 71.0031 74.1397C71.2115 74.6397 71.4406 74.9939 71.6906 75.2022C71.9406 75.3689 72.2115 75.4522 72.5031 75.4522C73.3365 75.4522 74.3781 74.9939 75.6281 74.0772C76.9198 73.1606 78.2115 72.0772 79.5031 70.8272C80.8365 69.5356 82.0656 68.2439 83.1906 66.9522C84.3156 65.6189 85.149 64.5564 85.6906 63.7647C86.024 63.3481 86.3573 63.0772 86.6906 62.9522C87.0656 62.8272 87.3573 62.8481 87.5656 63.0147C87.8156 63.1814 87.9406 63.4522 87.9406 63.8272C87.9823 64.2022 87.8573 64.6397 87.5656 65.1397C86.899 66.3064 85.9198 67.7022 84.6281 69.3272C83.3365 70.9106 81.9615 72.4522 80.5031 73.9522C79.0448 75.4106 77.6073 76.6606 76.1906 77.7022C74.8156 78.7439 73.6906 79.2856 72.8156 79.3272C72.1073 79.3689 71.399 79.2439 70.6906 78.9522C70.024 78.7022 69.399 78.3481 68.8156 77.8897C68.274 77.3897 67.8156 76.8272 67.4406 76.2022C67.0656 75.5356 66.8573 74.8481 66.8156 74.1397C66.6906 73.0981 66.6906 71.6814 66.8156 69.8897C66.9406 68.0564 67.1698 66.2022 67.5031 64.3272C67.8365 62.4106 68.2531 60.5981 68.7531 58.8897C69.2948 57.1814 69.899 55.9106 70.5656 55.0772Z" fill="#256ED5"/>
<path d="M111.792 84.4122C107.056 84.4122 102.96 83.5802 99.5039 81.9162C96.0906 80.2096 93.4665 77.7776 91.6319 74.6202C89.7972 71.4629 88.8799 67.7082 88.8799 63.3562C88.8799 58.7909 89.8399 54.7589 91.7599 51.2602C93.7225 47.7616 96.4532 45.0522 99.9519 43.1322C103.493 41.2122 107.568 40.2522 112.176 40.2522C114.821 40.2522 117.317 40.5509 119.664 41.1482C122.053 41.7456 124.165 42.5989 126 43.7082L123.76 51.3882C122.096 50.3642 120.24 49.5749 118.192 49.0202C116.144 48.4229 114.139 48.1242 112.176 48.1242C109.36 48.1242 106.864 48.7429 104.688 49.9802C102.555 51.1749 100.891 52.8816 99.6959 55.1002C98.5439 57.2762 97.9679 59.8149 97.9679 62.7162C97.9679 66.9829 99.2479 70.3536 101.808 72.8282C104.411 75.2602 107.952 76.4762 112.432 76.4762C114.224 76.4762 115.888 76.3482 117.424 76.0922V67.2602H112.048V59.7722H125.936V81.9162C121.541 83.5802 116.827 84.4122 111.792 84.4122Z" fill="#256ED5"/>
<path d="M133.07 75.7082H139.214L140 58.5C140 58.5 140.233 49.2681 140.402 47H145.621C146.495 58.2113 147.364 64.497 148.238 75.7082H153.742V83.4522H133.07V75.7082Z" fill="#256ED5"/>
<path d="M169.258 84.4122C167.168 84.4122 165.141 84.1989 163.178 83.7722C161.258 83.3456 159.616 82.7696 158.25 82.0442L159.082 74.3642C160.533 75.2602 162.133 75.9856 163.882 76.5402C165.632 77.0949 167.274 77.3722 168.81 77.3722C170.261 77.3722 171.477 77.1162 172.458 76.6042C173.44 76.0496 173.93 75.2602 173.93 74.2362C173.93 73.4256 173.589 72.8069 172.906 72.3802C172.224 71.9109 170.922 71.3349 169.002 70.6522L167.274 70.0122C165.44 69.3296 163.946 68.6896 162.794 68.0922C161.642 67.4522 160.597 66.4922 159.658 65.2122C158.72 63.9322 158.25 62.2469 158.25 60.1562C158.25 56.8282 159.488 54.2469 161.962 52.4122C164.48 50.5349 167.744 49.5962 171.754 49.5962C174.912 49.5962 178.24 50.2149 181.738 51.4522L180.522 59.0682C179.285 58.3429 177.877 57.7669 176.298 57.3402C174.762 56.8709 173.312 56.6362 171.946 56.6362C170.538 56.6362 169.408 56.8709 168.554 57.3402C167.744 57.8096 167.338 58.4922 167.338 59.3882C167.338 60.2416 167.68 60.8816 168.362 61.3082C169.045 61.7349 170.197 62.2256 171.818 62.7802C173.098 63.2496 173.845 63.5269 174.058 63.6122C175.85 64.3376 177.344 65.0416 178.538 65.7242C179.733 66.4069 180.778 67.4309 181.674 68.7962C182.57 70.1189 183.018 71.8256 183.018 73.9162C183.018 77.4149 181.76 80.0389 179.242 81.7882C176.725 83.5376 173.397 84.4122 169.258 84.4122Z" fill="#256ED5"/>
<path d="M201.818 84.4122C198.746 84.4122 196.357 83.6442 194.65 82.1082C192.986 80.5296 192.154 78.3109 192.154 75.4522V58.2362H187.034V50.4922H192.154V43.4522C195.184 42.9402 198.17 42.5562 201.114 42.3002V50.4922H209.434V58.2362H201.114V73.7882C201.114 74.6842 201.37 75.3669 201.882 75.8362C202.437 76.3056 203.205 76.5402 204.186 76.5402C205.381 76.5402 206.746 76.2629 208.282 75.7082L210.266 82.4922C207.536 83.7722 204.72 84.4122 201.818 84.4122Z" fill="#256ED5"/>
</svg>
